<svg width="32" height="32" viewBox="0 0 32 32" fill="none" xmlns="http://www.w3.org/2000/svg">
<g clip-path="url(#clip0_167_223)">
<path opacity="0.4" d="M16 29.7143C23.5742 29.7143 29.7143 23.5742 29.7143 16C29.7143 8.4258 23.5742 2.28571 16 2.28571C8.4258 2.28571 2.28571 8.4258 2.28571 16C2.28571 23.5742 8.4258 29.7143 16 29.7143Z" stroke="#5FC88F" stroke-width="3" stroke-linecap="round" stroke-linejoin="round"/>
<path d="M12.12 12C12.4335 11.1089 13.0522 10.3575 13.8666 9.87887C14.681 9.40024 15.6385 9.22528 16.5696 9.38498C17.5006 9.54467 18.3451 10.0287 18.9534 10.7514C19.5618 11.4741 19.8947 12.3887 19.8933 13.3334C19.8933 16 15.8933 17.3334 15.8933 17.3334" stroke="#5FC88F" stroke-width="3" stroke-linecap="round" stroke-linejoin="round"/>
<path d="M16 22.6667H16.0129" stroke="#5FC88F" stroke-width="3" stroke-linecap="round" stroke-linejoin="round"/>
</g>
<defs>
<clipPath id="clip0_167_223">
<rect width="32" height="32" fill="white"/>
</clipPath>
</defs>
</svg>
