<svg width="32" height="32" viewBox="0 0 32 32" fill="none" xmlns="http://www.w3.org/2000/svg">
<g clip-path="url(#clip0_167_221)">
<path d="M13.4476 4.29256C14.0968 1.61675 17.9032 1.61675 18.5524 4.29256C18.6498 4.69454 18.8407 5.06784 19.1096 5.38209C19.3786 5.69633 19.7179 5.94263 20.1 6.10094C20.4821 6.25925 20.8962 6.3251 21.3086 6.29312C21.721 6.26115 22.12 6.13226 22.4731 5.91694C24.8244 4.48456 27.5169 7.17561 26.0846 9.52837C25.8695 9.88137 25.7409 10.2801 25.709 10.6922C25.6771 11.1043 25.7429 11.5181 25.901 11.9C26.0591 12.2819 26.3051 12.6211 26.619 12.89C26.9329 13.1589 27.3058 13.3499 27.7074 13.4476C30.3832 14.0968 30.3832 17.9032 27.7074 18.5524C27.3054 18.6498 26.9321 18.8407 26.6179 19.1096C26.3037 19.3786 26.0574 19.7179 25.899 20.1C25.7407 20.4821 25.6749 20.8962 25.7069 21.3086C25.7388 21.721 25.8677 22.12 26.083 22.4731C27.5154 24.8244 24.8244 27.5169 22.4716 26.0846C22.1186 25.8695 21.7199 25.7409 21.3078 25.709C20.8957 25.6771 20.4819 25.7429 20.1 25.901C19.7181 26.0591 19.3789 26.3051 19.11 26.619C18.8411 26.9329 18.65 27.3058 18.5524 27.7074C17.9032 30.3832 14.0968 30.3832 13.4476 27.7074C13.3502 27.3054 13.1593 26.9321 12.8903 26.6179C12.6214 26.3037 12.2821 26.0574 11.8999 25.899C11.5178 25.7407 11.1037 25.6749 10.6914 25.7069C10.279 25.7388 9.87999 25.8677 9.52685 26.083C7.17561 27.5154 4.48304 24.8244 5.91542 22.4716C6.13043 22.1186 6.25912 21.7199 6.29101 21.3078C6.32291 20.8957 6.25712 20.4819 6.099 20.1C5.94087 19.7181 5.69486 19.3789 5.38098 19.11C5.06709 18.8411 4.69418 18.65 4.29256 18.5524C1.61675 17.9032 1.61675 14.0968 4.29256 13.4476C4.69454 13.3502 5.06784 13.1593 5.38209 12.8903C5.69633 12.6214 5.94263 12.2821 6.10094 11.8999C6.25925 11.5178 6.3251 11.1037 6.29312 10.6914C6.26115 10.279 6.13226 9.87999 5.91694 9.52685C4.48456 7.17561 7.17561 4.48304 9.52837 5.91542C11.0461 6.8419 13.027 6.02209 13.4476 4.29256Z" stroke="#FFCC7E" stroke-width="3" stroke-linecap="round" stroke-linejoin="round"/>
<path opacity="0.3" d="M20.5714 16C20.5714 17.2124 20.0898 18.3752 19.2325 19.2325C18.3752 20.0898 17.2124 20.5714 16 20.5714C14.7876 20.5714 13.6248 20.0898 12.7675 19.2325C11.9102 18.3752 11.4286 17.2124 11.4286 16C11.4286 14.7876 11.9102 13.6248 12.7675 12.7675C13.6248 11.9102 14.7876 11.4286 16 11.4286C17.2124 11.4286 18.3752 11.9102 19.2325 12.7675C20.0898 13.6248 20.5714 14.7876 20.5714 16V16Z" stroke="#FFCC7E" stroke-width="3" stroke-linecap="round" stroke-linejoin="round"/>
</g>
<defs>
<clipPath id="clip0_167_221">
<rect width="32" height="32" fill="white"/>
</clipPath>
</defs>
</svg>
